<svg width="512" height="512" viewBox="0 0 96 96" xmlns="http://www.w3.org/2000/svg">
  <rect width="96" height="96" rx="22" fill="#1B3A6B"/>
  <path d="M48 8 L78 19 L78 50 Q78 74 48 84 Q18 74 18 50 L18 19 Z" fill="#2452A0"/>
  <path d="M48 14 L74 24 L74 50 Q74 70 48 79 Q22 70 22 50 L22 24 Z" fill="#2E5FC0"/>
  <rect x="34" y="28" width="24" height="32" rx="4" fill="white" opacity="0.97"/>
  <path d="M38 37 L54 37" stroke="#1B3A6B" stroke-width="2.5" stroke-linecap="round"/>
  <path d="M38 44 L54 44" stroke="#1B3A6B" stroke-width="2.5" stroke-linecap="round"/>
  <path d="M38 51 L47 51" stroke="#1B3A6B" stroke-width="2.5" stroke-linecap="round"/>
  <circle cx="62" cy="66" r="16" fill="#22C97A"/>
  <path d="M55 66 L61 72 L70 60" stroke="white" stroke-width="3" stroke-linecap="round" stroke-linejoin="round" fill="none"/>
</svg>
